{
  "asset": {
    "generator": "Khronos glTF Blender I/O v1.4.40",
    "version": "2.0"
  },
  "scene": 0,
  "scenes": [
    {
      "name": "Scene",
      "nodes": [0]
    }
  ],
  "nodes": [
    {
      "mesh": 0,
      "name": "Money",
      "translation": [0, 0, 0]
    }
  ],
  "materials": [
    {
      "doubleSided": true,
      "name": "Money mat",
      "pbrMetallicRoughness": {
        "baseColorFactor": [
          0.800000011920929, 0.800000011920929, 0.800000011920929, 0
        ],
        "metallicFactor": 0,
        "roughnessFactor": 0.690034806728363
      }
    }
  ],
  "meshes": [
    {
      "name": "Cube.001",
      "primitives": [
        {
          "attributes": {
            "POSITION": 0,
            "NORMAL": 1,
            "TEXCOORD_0": 2
          },
          "indices": 3,
          "material": 0
        }
      ]
    }
  ],
  "accessors": [
    {
      "bufferView": 0,
      "componentType": 5126,
      "count": 1040,
      "max": [0.05168953537940979, 0.043406229466199875, 0.1015036478638649],
      "min": [-0.0533919632434845, 0.0004304163157939911, -0.10087629407644272],
      "type": "VEC3"
    },
    {
      "bufferView": 1,
      "componentType": 5126,
      "count": 1040,
      "type": "VEC3"
    },
    {
      "bufferView": 2,
      "componentType": 5126,
      "count": 1040,
      "type": "VEC2"
    },
    {
      "bufferView": 3,
      "componentType": 5123,
      "count": 2448,
      "type": "SCALAR"
    }
  ],
  "bufferViews": [
    {
      "buffer": 0,
      "byteLength": 12480,
      "byteOffset": 0
    },
    {
      "buffer": 0,
      "byteLength": 12480,
      "byteOffset": 12480
    },
    {
      "buffer": 0,
      "byteLength": 8320,
      "byteOffset": 24960
    },
    {
      "buffer": 0,
      "byteLength": 4896,
      "byteOffset": 33280
    }
  ],
  "buffers": [
    {
      "byteLength": 38176,
      "uri": "cash.bin"
    }
  ]
}
